<svg xmlns="http://www.w3.org/2000/svg" xmlns:xlink="http://www.w3.org/1999/xlink" viewBox="0 0 964.65 964.65"><defs><style>.cls-1{fill:url(#linear-gradient);}.cls-2{fill:url(#radial-gradient);}.cls-3{fill:none;stroke:#fff;stroke-linecap:round;stroke-linejoin:round;stroke-width:50px;}</style><linearGradient id="linear-gradient" x1="482.32" y1="-10.06" x2="482.32" y2="939.2" gradientUnits="userSpaceOnUse"><stop offset="0.02" stop-color="#9cecfb"/><stop offset="0.18" stop-color="#93ddeb"/><stop offset="0.41" stop-color="#82c2ce"/><stop offset="0.6" stop-color="#549ad0"/><stop offset="0.87" stop-color="#1866d3"/><stop offset="1" stop-color="#0052d4"/></linearGradient><radialGradient id="radial-gradient" cx="482.32" cy="482.32" r="482.32" gradientUnits="userSpaceOnUse"><stop offset="0.02" stop-color="#9cecfb" stop-opacity="0"/><stop offset="0.31" stop-color="#82d2f4" stop-opacity="0.03"/><stop offset="0.73" stop-color="#3a8be2" stop-opacity="0.13"/><stop offset="1" stop-color="#0052d4" stop-opacity="0.2"/></radialGradient></defs><g id="Layer_1" data-name="Layer 1"><rect class="cls-1" width="964.65" height="964.65" rx="254.71"/><rect class="cls-2" width="964.65" height="964.65" rx="254.71"/></g><g id="Layer_2" data-name="Layer 2"><polyline class="cls-3" points="535.88 536.5 624.25 536.5 624.25 624.87"/><polyline class="cls-3" points="335.89 624.87 424.26 624.87 424.26 536.5"/><path class="cls-3" d="M748.74,680.44c-12.38,14.14-24.75,28.28-38.89,42.42-123.72,123.72-270.41,180.28-327,123.72s-1.77-203.25,123.72-327S777,339.33,833.57,395.89c24.74,24.74,28.28,63.63,14.14,111.35" transform="translate(-124.48 -136.87)"/><path class="cls-3" d="M519,735.23c-5.3-3.53-8.84-8.83-14.14-14.14-123.72-123.71-180.27-270.41-123.72-327s203.26-1.76,327,123.72,180.28,270.42,123.72,327c-30,30.05-84.83,28.28-148.46,1.77" transform="translate(-124.48 -136.87)"/></g></svg>